<?xml version="1.0" encoding="utf-8"?>
<!-- Generator: Adobe Illustrator 21.0.2, SVG Export Plug-In . SVG Version: 6.00 Build 0)  -->
<svg version="1.1" id="Layer_1" xmlns="http://www.w3.org/2000/svg" xmlns:xlink="http://www.w3.org/1999/xlink" x="0px" y="0px"
	 viewBox="0 0 487.9 125.4" style="enable-background:new 0 0 487.9 125.4;" xml:space="preserve">
<style type="text/css">
	.st0{fill:none;stroke:#1D266F;stroke-width:2;stroke-miterlimit:10;}
	.st1{fill:#1D266F;}
</style>
<g>
	<g>
		<path class="st0" d="M1,32.7l30.2-18.1v5.3l-23,14.1l23,14v5.4L1,35.4V32.7z"/>
		<path class="st1" d="M50.5,53.3c-2.9,0-5.8-0.5-8.6-1.4c-2.8-1-5.2-2.4-7.2-4.2l2.2-3.3c2.1,1.7,4.3,3,6.4,3.9
			c2.2,0.9,4.5,1.3,7,1.3c3,0,5.4-0.6,7.2-1.8c1.8-1.2,2.7-3,2.7-5.2c0-1.1-0.2-1.9-0.7-2.6c-0.5-0.7-1.2-1.3-2.1-1.8
			c-0.9-0.5-2.1-1-3.5-1.4c-1.4-0.4-3.1-0.8-4.9-1.3c-2.2-0.5-4-1.1-5.6-1.6c-1.6-0.5-2.9-1.1-3.9-1.8c-1-0.7-1.8-1.5-2.3-2.5
			c-0.5-1-0.8-2.2-0.8-3.7c0-1.9,0.4-3.5,1.1-5c0.7-1.4,1.8-2.6,3-3.6c1.3-0.9,2.8-1.6,4.5-2.1c1.7-0.5,3.5-0.7,5.4-0.7
			c2.9,0,5.5,0.5,7.8,1.4c2.4,0.9,4.2,2.2,5.7,3.7l-2.4,2.9c-1.4-1.4-3.1-2.5-5.1-3.2c-2-0.7-4.1-1.1-6.2-1.1
			c-1.3,0-2.5,0.1-3.6,0.4c-1.1,0.3-2.1,0.7-2.9,1.3c-0.8,0.6-1.5,1.3-2,2.2c-0.5,0.9-0.7,1.9-0.7,3.1c0,1,0.2,1.8,0.5,2.4
			c0.3,0.6,0.9,1.2,1.7,1.6c0.8,0.5,1.7,0.9,2.9,1.2c1.2,0.4,2.6,0.7,4.3,1.1c2.4,0.6,4.5,1.2,6.3,1.7c1.8,0.6,3.3,1.2,4.6,2
			c1.2,0.8,2.1,1.7,2.8,2.8c0.6,1.1,0.9,2.4,0.9,4c0,3.5-1.3,6.2-4,8.2C58.6,52.3,55,53.3,50.5,53.3z"/>
		<path class="st1" d="M86.7,53.3c-2.7,0-5.2-0.5-7.5-1.5c-2.3-1-4.3-2.4-5.9-4.2c-1.7-1.8-3-3.9-3.9-6.2c-0.9-2.4-1.4-4.9-1.4-7.6
			c0-2.6,0.5-5.1,1.4-7.5c0.9-2.3,2.2-4.4,3.9-6.1c1.7-1.8,3.6-3.1,5.9-4.2c2.3-1,4.8-1.5,7.5-1.5c2.7,0,5.2,0.5,7.5,1.5
			c2.3,1,4.2,2.4,5.9,4.2c1.6,1.8,2.9,3.8,3.8,6.1c0.9,2.3,1.4,4.8,1.4,7.3c0,0.4,0,0.8,0,1.2c0,0.4,0,0.6-0.1,0.8H73
			c0.1,2,0.6,3.9,1.4,5.6c0.8,1.7,1.8,3.2,3.1,4.4c1.2,1.2,2.7,2.2,4.3,2.9c1.6,0.7,3.3,1,5.1,1c1.2,0,2.4-0.2,3.6-0.5
			c1.2-0.3,2.3-0.8,3.3-1.4s1.9-1.3,2.7-2.1c0.8-0.8,1.4-1.8,1.9-2.8l4.2,1.2c-0.6,1.4-1.4,2.7-2.4,3.8c-1.1,1.1-2.3,2.1-3.7,3
			c-1.4,0.8-2.9,1.5-4.6,1.9C90.3,53.1,88.5,53.3,86.7,53.3z M100.5,31.8c-0.1-2-0.6-3.9-1.4-5.5c-0.8-1.7-1.8-3.1-3-4.3
			c-1.2-1.2-2.6-2.1-4.2-2.8c-1.6-0.7-3.3-1-5.1-1c-1.8,0-3.6,0.3-5.2,1c-1.6,0.7-3.1,1.6-4.3,2.8c-1.2,1.2-2.2,2.6-3,4.3
			c-0.7,1.7-1.2,3.5-1.3,5.5H100.5z"/>
		<path class="st1" d="M120.7,53.3c-1.8,0-3.4-0.3-4.9-0.9c-1.5-0.6-2.8-1.4-4-2.5c-1.1-1.1-2-2.3-2.6-3.7c-0.6-1.4-0.9-2.9-0.9-4.6
			c0-1.6,0.4-3.1,1.2-4.5c0.8-1.4,1.8-2.6,3.2-3.6c1.4-1,3-1.8,5-2.3c1.9-0.6,4-0.8,6.3-0.8c1.9,0,3.9,0.2,5.8,0.5
			c2,0.3,3.7,0.8,5.3,1.4v-3.4c0-3.3-0.9-5.9-2.8-7.9c-1.9-1.9-4.5-2.9-7.8-2.9c-1.9,0-3.9,0.4-5.9,1.2c-2,0.8-4.1,1.9-6.1,3.3
			l-1.7-3.2c4.8-3.3,9.6-4.9,14.1-4.9c4.7,0,8.4,1.3,11.1,4c2.7,2.6,4,6.3,4,10.9v16.9c0,1.3,0.6,2,1.8,2v4.3
			c-0.8,0.1-1.4,0.2-1.9,0.2c-1.2,0-2.2-0.3-2.9-0.9c-0.7-0.6-1.1-1.5-1.1-2.6l-0.1-3c-1.7,2.3-3.9,4-6.5,5.2
			C126.6,52.7,123.8,53.3,120.7,53.3z M121.9,49.5c2.5,0,4.9-0.5,7-1.4c2.1-1,3.8-2.2,4.9-3.8c0.4-0.4,0.8-0.9,1-1.4s0.3-1,0.3-1.4
			v-6.1c-1.6-0.6-3.3-1.1-5.1-1.4c-1.8-0.3-3.5-0.5-5.4-0.5c-3.5,0-6.3,0.7-8.4,2.2c-2.2,1.4-3.2,3.3-3.2,5.7c0,1.2,0.2,2.2,0.7,3.2
			c0.5,1,1.1,1.9,1.9,2.6c0.8,0.7,1.7,1.3,2.8,1.8C119.5,49.3,120.6,49.5,121.9,49.5z"/>
		<path class="st1" d="M180.6,52.6h-4.9v-21c0-4.5-0.7-7.7-2-9.7c-1.3-2-3.3-3-6.1-3c-1.4,0-2.9,0.3-4.3,0.8c-1.4,0.5-2.8,1.3-4,2.2
			c-1.2,1-2.3,2.1-3.3,3.4c-1,1.3-1.7,2.7-2.1,4.3v23h-4.9V15h4.5v8.5c1.5-2.7,3.7-4.9,6.6-6.6c2.9-1.7,6-2.5,9.3-2.5
			c2.1,0,3.8,0.4,5.3,1.2c1.4,0.8,2.6,1.8,3.5,3.2c0.9,1.4,1.5,3.1,1.9,5.1c0.4,2,0.6,4.2,0.6,6.7V52.6z"/>
		<path class="st1" d="M213.1,53.3c-3,0-5.7-0.7-8.2-2.2c-2.5-1.5-4.4-3.4-5.8-5.8v7.3h-4.4V0h4.9v22.9c1.7-2.5,3.7-4.6,6-6.2
			c2.4-1.6,5.1-2.3,8.2-2.3c2.6,0,5,0.6,7.1,1.7c2.1,1.1,3.9,2.6,5.3,4.4c1.5,1.8,2.6,3.9,3.4,6.3c0.8,2.3,1.2,4.7,1.2,7.2
			c0,2.6-0.5,5.1-1.4,7.5c-0.9,2.4-2.2,4.4-3.7,6.2c-1.6,1.8-3.5,3.1-5.7,4.2C217.9,52.8,215.5,53.3,213.1,53.3z M211.9,49
			c2.1,0,3.9-0.4,5.7-1.3c1.7-0.8,3.2-2,4.4-3.4c1.2-1.4,2.2-3,2.9-4.8c0.7-1.8,1-3.7,1-5.6c0-2-0.3-3.9-1-5.7
			c-0.6-1.8-1.6-3.4-2.7-4.9c-1.2-1.4-2.6-2.5-4.2-3.4c-1.7-0.8-3.5-1.3-5.4-1.3c-1.5,0-2.9,0.3-4.2,0.8c-1.3,0.5-2.5,1.2-3.6,2.1
			c-1.1,0.9-2.1,1.9-3,3c-0.9,1.1-1.6,2.3-2.2,3.6v11.7c0.2,1.3,0.7,2.5,1.5,3.6c0.8,1.1,1.8,2.1,3,2.9c1.2,0.8,2.4,1.5,3.8,1.9
			C209.3,48.7,210.7,49,211.9,49z"/>
		<path class="st1" d="M248.2,53.3c-4.1,0-7.1-1.4-9.1-4.1c-2-2.7-3-6.8-3-12.1V15h4.9v21.2c0,8.5,2.9,12.7,8.7,12.7
			c1.4,0,2.9-0.2,4.2-0.7c1.4-0.5,2.7-1.2,3.9-2.1c1.2-0.9,2.2-2,3.2-3.2c0.9-1.2,1.7-2.7,2.3-4.2V15h4.9v31.2c0,1.3,0.6,2,1.7,2
			v4.3c-0.6,0.1-1,0.1-1.4,0.1s-0.6,0-0.8,0c-1.2,0-2.1-0.5-2.8-1.2c-0.7-0.8-1.1-1.8-1.1-3.1v-4.3c-1.6,2.9-3.9,5.2-6.7,6.8
			C254.4,52.5,251.4,53.3,248.2,53.3z"/>
		<path class="st1" d="M273.7,33.7c0-2.6,0.5-5.1,1.4-7.5c0.9-2.4,2.2-4.4,3.9-6.2c1.7-1.8,3.6-3.1,5.9-4.1s4.8-1.5,7.6-1.5
			c3.6,0,6.6,0.8,9.3,2.4c2.6,1.6,4.6,3.8,6,6.5l-4.8,1.5c-1.1-1.9-2.5-3.4-4.4-4.5c-1.9-1.1-4-1.6-6.3-1.6c-1.9,0-3.7,0.4-5.4,1.2
			c-1.7,0.8-3.1,1.8-4.3,3.1c-1.2,1.3-2.2,2.9-2.9,4.7c-0.7,1.8-1,3.8-1,6c0,2.1,0.4,4.1,1.1,6c0.7,1.9,1.7,3.5,3,4.9
			c1.2,1.4,2.7,2.4,4.4,3.2s3.4,1.2,5.3,1.2c1.2,0,2.4-0.2,3.6-0.5c1.2-0.3,2.3-0.8,3.3-1.4c1-0.6,1.9-1.3,2.6-2.1
			c0.7-0.8,1.2-1.6,1.5-2.4l4.8,1.4c-0.5,1.3-1.3,2.6-2.3,3.7c-1,1.1-2.2,2.1-3.6,3c-1.4,0.8-2.9,1.5-4.5,1.9s-3.4,0.7-5.1,0.7
			c-2.7,0-5.3-0.5-7.6-1.5c-2.3-1-4.3-2.4-6-4.2c-1.7-1.8-3-3.9-3.9-6.2C274.2,38.9,273.7,36.4,273.7,33.7z"/>
		<path class="st1" d="M345.5,52.6h-4.9v-21c0-4.3-0.7-7.5-2.2-9.6c-1.5-2.1-3.6-3.2-6.4-3.2c-1.4,0-2.8,0.3-4.1,0.8
			c-1.4,0.6-2.7,1.3-3.9,2.3c-1.2,1-2.2,2.1-3.1,3.4c-0.9,1.3-1.5,2.7-2,4.2v23h-4.9V0h4.9v23.5c1.5-2.8,3.6-5.1,6.2-6.7
			c2.6-1.6,5.5-2.4,8.6-2.4c2.2,0,4,0.4,5.5,1.2c1.5,0.8,2.7,1.9,3.7,3.3c1,1.4,1.7,3.1,2.1,5.1c0.4,2,0.6,4.2,0.6,6.6V52.6z"/>
		<path class="st1" d="M384.8,52.6H380v-21c0-4.3-0.7-7.5-2.2-9.6c-1.5-2.1-3.6-3.2-6.4-3.2c-1.4,0-2.8,0.3-4.1,0.8
			c-1.4,0.6-2.7,1.3-3.9,2.3c-1.2,1-2.2,2.1-3.1,3.4c-0.9,1.3-1.5,2.7-2,4.2v23h-4.9V0h4.9v23.5c1.5-2.8,3.6-5.1,6.2-6.7
			c2.6-1.6,5.5-2.4,8.6-2.4c2.2,0,4,0.4,5.5,1.2c1.5,0.8,2.7,1.9,3.7,3.3c1,1.4,1.7,3.1,2.1,5.1c0.4,2,0.6,4.2,0.6,6.6V52.6z"/>
		<path class="st1" d="M408.9,53.3c-2.7,0-5.2-0.5-7.5-1.5c-2.3-1-4.2-2.4-5.9-4.2c-1.7-1.8-2.9-3.8-3.9-6.2
			c-0.9-2.4-1.4-4.8-1.4-7.4c0-2.6,0.5-5.1,1.4-7.5c0.9-2.4,2.2-4.4,3.9-6.2c1.7-1.8,3.6-3.2,5.9-4.2c2.3-1.1,4.7-1.6,7.4-1.6
			c2.7,0,5.2,0.5,7.5,1.6c2.3,1.1,4.2,2.5,5.9,4.2c1.7,1.8,3,3.8,3.9,6.2c0.9,2.4,1.4,4.8,1.4,7.5c0,2.6-0.5,5.1-1.4,7.4
			c-0.9,2.4-2.2,4.4-3.9,6.2c-1.7,1.8-3.6,3.2-5.9,4.2C414.1,52.8,411.6,53.3,408.9,53.3z M395.3,34c0,2.1,0.4,4.1,1.1,5.9
			c0.7,1.8,1.7,3.4,2.9,4.8c1.2,1.4,2.7,2.4,4.3,3.2c1.7,0.8,3.4,1.2,5.3,1.2s3.6-0.4,5.3-1.2s3.1-1.9,4.4-3.2c1.2-1.4,2.2-3,3-4.8
			c0.7-1.8,1.1-3.8,1.1-5.9c0-2.1-0.4-4-1.1-5.9c-0.7-1.8-1.7-3.5-3-4.8c-1.2-1.4-2.7-2.4-4.4-3.2s-3.4-1.2-5.3-1.2
			s-3.6,0.4-5.3,1.2c-1.6,0.8-3.1,1.9-4.3,3.3c-1.2,1.4-2.2,3-3,4.9C395.7,29.9,395.3,31.9,395.3,34z"/>
		<path class="st1" d="M434.3,0h4.9v44.1c0,1.4,0.4,2.5,1.2,3.3c0.8,0.8,1.8,1.2,3.2,1.2c0.5,0,1.2-0.1,1.9-0.2
			c0.7-0.1,1.4-0.3,2-0.6l0.9,4c-0.9,0.4-2,0.7-3.3,0.9c-1.3,0.2-2.5,0.4-3.4,0.4c-2.3,0-4-0.6-5.3-1.9c-1.3-1.3-1.9-3.1-1.9-5.4V0z
			"/>
		<path class="st1" d="M451.1,49.2l25.3-30.5h-24.8V15h30.1v3.3l-25.3,30.5h25.2v3.7h-30.6V49.2z"/>
	</g>
	<g>
		<path class="st1" d="M85.4,71.6h9.1l-15.8,37.7h-7.9l-6.5-16.6L58,109.4h-7.9L34.4,71.6h9.1l11.2,28.7L59.3,88l-6.6-16.3h7.8
			l4,11.6l4-11.6h7.8L69.6,88l4.5,12.2L85.4,71.6z"/>
		<path class="st1" d="M112.4,110.1c-3,0-5.8-0.5-8.2-1.5c-2.4-1-4.5-2.4-6.3-4.2c-1.7-1.8-3.1-3.8-4-6.2c-0.9-2.4-1.4-4.8-1.4-7.4
			c0-2.7,0.5-5.2,1.4-7.6c0.9-2.4,2.2-4.5,4-6.3c1.7-1.8,3.8-3.2,6.3-4.3c2.5-1.1,5.2-1.6,8.3-1.6c3.1,0,5.8,0.5,8.2,1.6
			c2.4,1.1,4.5,2.5,6.2,4.2c1.7,1.8,3,3.8,3.9,6.2c0.9,2.4,1.3,4.8,1.3,7.3c0,0.6,0,1.2,0,1.8c0,0.6-0.1,1.1-0.2,1.4h-29.2
			c0.1,1.5,0.5,2.8,1.1,4c0.6,1.2,1.3,2.1,2.2,3c0.9,0.8,1.9,1.4,3.1,1.9c1.2,0.4,2.4,0.6,3.6,0.6c1.9,0,3.7-0.5,5.4-1.4
			c1.7-0.9,2.9-2.2,3.5-3.7l8.3,2.3c-1.4,2.9-3.6,5.2-6.7,7.1C120.3,109.2,116.6,110.1,112.4,110.1z M122.2,87.3
			c-0.2-2.8-1.3-5.1-3.1-6.8c-1.8-1.7-4.1-2.6-6.7-2.6c-1.3,0-2.5,0.2-3.6,0.7c-1.1,0.5-2.1,1.1-3,1.9c-0.9,0.8-1.6,1.8-2.1,3
			c-0.6,1.2-0.9,2.4-1,3.8H122.2z"/>
		<path class="st1" d="M157.3,110.1c-2.9,0-5.4-0.6-7.7-1.9c-2.3-1.3-4-3.1-5.3-5.3v6.6h-8.4V56.8h9.6v21.5c1.3-2.3,3.1-4.1,5.3-5.4
			c2.2-1.3,4.7-1.9,7.7-1.9c2.4,0,4.7,0.5,6.7,1.6c2,1.1,3.8,2.5,5.2,4.2c1.5,1.8,2.6,3.9,3.4,6.3s1.2,4.9,1.2,7.6
			c0,2.7-0.4,5.3-1.3,7.6c-0.9,2.4-2.1,4.4-3.7,6.2c-1.6,1.8-3.5,3.1-5.6,4.1S159.8,110.1,157.3,110.1z M154.6,101.9
			c1.5,0,3-0.3,4.2-0.9c1.3-0.6,2.4-1.4,3.3-2.4c0.9-1,1.6-2.2,2.1-3.5c0.5-1.3,0.8-2.8,0.8-4.3c0-1.5-0.2-3-0.7-4.4
			c-0.5-1.4-1.2-2.6-2.1-3.7c-0.9-1.1-1.9-1.9-3.1-2.5c-1.2-0.6-2.5-0.9-4-0.9c-2.2,0-4.1,0.7-5.8,2.1c-1.7,1.4-3,3.2-3.9,5.2v9
			c0.3,1,0.8,1.8,1.5,2.6c0.6,0.8,1.4,1.4,2.2,2c0.8,0.6,1.7,1,2.7,1.3C152.8,101.7,153.7,101.9,154.6,101.9z"/>
		<path class="st1" d="M201.1,110.1c-2.6,0-5-0.5-7.2-1.5c-2.2-1-4.1-2.4-5.7-4.2c-1.6-1.8-2.8-3.9-3.7-6.2
			c-0.9-2.4-1.3-4.9-1.3-7.7c0-2.7,0.4-5.3,1.3-7.6c0.8-2.4,2-4.4,3.5-6.2c1.5-1.8,3.3-3.2,5.3-4.2c2.1-1,4.3-1.5,6.8-1.5
			c2.8,0,5.3,0.7,7.5,2s4,3.1,5.2,5.3V56.8h9.6v41.5c0,1,0.2,1.7,0.5,2.2c0.3,0.4,0.9,0.7,1.7,0.7v8.2c-1.7,0.3-3,0.5-4.1,0.5
			c-1.7,0-3.1-0.4-4.2-1.3c-1.1-0.9-1.7-2-1.9-3.4l-0.2-2.4c-1.4,2.4-3.3,4.2-5.7,5.4C206.2,109.5,203.7,110.1,201.1,110.1z
			 M203.6,101.9c0.9,0,1.8-0.2,2.8-0.5c1-0.3,1.8-0.8,2.7-1.3c0.8-0.6,1.5-1.2,2.2-2c0.6-0.8,1.1-1.6,1.5-2.5v-9
			c-0.4-1.1-0.9-2-1.6-2.9c-0.7-0.9-1.5-1.7-2.4-2.3c-0.9-0.6-1.8-1.2-2.8-1.5c-1-0.4-2-0.6-2.9-0.6c-1.4,0-2.8,0.3-4,0.9
			c-1.2,0.6-2.3,1.5-3.1,2.6c-0.9,1.1-1.5,2.3-2,3.7c-0.5,1.4-0.7,2.8-0.7,4.3c0,1.6,0.3,3,0.8,4.4c0.5,1.3,1.2,2.5,2.2,3.5
			c0.9,1,2,1.8,3.3,2.4C200.7,101.6,202.1,101.9,203.6,101.9z"/>
		<path class="st1" d="M246.7,110.1c-3,0-5.8-0.5-8.2-1.5c-2.4-1-4.5-2.4-6.3-4.2c-1.7-1.8-3.1-3.8-4-6.2c-0.9-2.4-1.4-4.8-1.4-7.4
			c0-2.7,0.5-5.2,1.4-7.6c0.9-2.4,2.2-4.5,4-6.3c1.7-1.8,3.8-3.2,6.3-4.3c2.5-1.1,5.2-1.6,8.3-1.6c3.1,0,5.8,0.5,8.2,1.6
			c2.4,1.1,4.5,2.5,6.2,4.2c1.7,1.8,3,3.8,3.9,6.2c0.9,2.4,1.3,4.8,1.3,7.3c0,0.6,0,1.2,0,1.8c0,0.6-0.1,1.1-0.2,1.4H237
			c0.1,1.5,0.5,2.8,1.1,4c0.6,1.2,1.3,2.1,2.2,3c0.9,0.8,1.9,1.4,3.1,1.9c1.2,0.4,2.4,0.6,3.6,0.6c1.9,0,3.7-0.5,5.4-1.4
			c1.7-0.9,2.9-2.2,3.5-3.7l8.3,2.3c-1.4,2.9-3.6,5.2-6.7,7.1C254.5,109.2,250.9,110.1,246.7,110.1z M256.4,87.3
			c-0.2-2.8-1.3-5.1-3.1-6.8c-1.8-1.7-4.1-2.6-6.7-2.6c-1.3,0-2.5,0.2-3.6,0.7c-1.1,0.5-2.1,1.1-3,1.9c-0.9,0.8-1.6,1.8-2.1,3
			c-0.6,1.2-0.9,2.4-1,3.8H256.4z"/>
		<path class="st1" d="M284,110.1c-3.2,0-6.3-0.5-9.3-1.5c-3-1-5.6-2.4-7.8-4.3l3.6-6c2.3,1.6,4.5,2.9,6.7,3.7
			c2.2,0.8,4.4,1.3,6.5,1.3c1.9,0,3.4-0.4,4.5-1.1c1.1-0.7,1.7-1.8,1.7-3.1c0-1.3-0.6-2.3-1.9-3c-1.3-0.6-3.4-1.3-6.3-2.2
			c-2.4-0.7-4.5-1.3-6.3-1.9c-1.7-0.6-3.1-1.3-4.2-2.1s-1.8-1.7-2.3-2.7c-0.5-1-0.7-2.3-0.7-3.7c0-1.9,0.4-3.6,1.1-5.2
			c0.7-1.5,1.8-2.8,3.1-3.9c1.3-1.1,2.9-1.9,4.7-2.5s3.8-0.9,5.9-0.9c2.8,0,5.5,0.4,8,1.2c2.5,0.8,4.7,2.1,6.8,4l-3.9,5.8
			c-1.9-1.4-3.8-2.5-5.6-3.2s-3.6-1-5.4-1c-1.6,0-3,0.3-4.1,1c-1.1,0.7-1.7,1.8-1.7,3.2c0,0.7,0.1,1.2,0.4,1.7s0.7,0.8,1.3,1.2
			c0.6,0.3,1.3,0.7,2.3,1c0.9,0.3,2.1,0.6,3.5,1c2.6,0.7,4.8,1.3,6.7,2c1.8,0.7,3.4,1.4,4.5,2.3c1.2,0.9,2,1.9,2.6,3
			c0.6,1.1,0.8,2.5,0.8,4.1c0,3.7-1.4,6.6-4.1,8.7C292.4,109,288.7,110.1,284,110.1z"/>
		<path class="st1" d="M303.2,66.4v-9.6h9.6v9.6H303.2z M303.2,109.4V71.6h9.6v37.7H303.2z"/>
		<path class="st1" d="M334.1,109.6c-2.5,0-4.8-0.5-6.9-1.5c-2.1-1-3.9-2.4-5.4-4.1s-2.7-3.8-3.5-6.1c-0.8-2.3-1.2-4.8-1.2-7.3
			c0-2.7,0.4-5.3,1.3-7.6c0.9-2.4,2.1-4.4,3.6-6.2c1.5-1.8,3.4-3.2,5.5-4.2c2.2-1,4.5-1.5,7.1-1.5c2.9,0,5.5,0.7,7.7,2
			c2.2,1.3,4,3.1,5.5,5.3v-6.6h8.4v35.9c0,2.8-0.5,5.3-1.6,7.5c-1.1,2.2-2.5,4.1-4.4,5.6c-1.8,1.5-4.1,2.7-6.6,3.5
			c-2.6,0.8-5.4,1.2-8.4,1.2c-4.1,0-7.6-0.7-10.4-2.1c-2.8-1.4-5.2-3.3-7.2-5.8l5.3-5.1c1.4,1.8,3.3,3.2,5.4,4.2s4.5,1.5,6.9,1.5
			c1.5,0,2.9-0.2,4.3-0.6c1.4-0.4,2.6-1,3.6-1.9c1.1-0.9,1.9-2,2.5-3.3c0.6-1.3,0.9-2.9,0.9-4.8v-4.8c-1.2,2.2-3,3.8-5.3,5
			C339.1,109,336.7,109.6,334.1,109.6z M337.3,101.9c1.1,0,2.1-0.2,3-0.5c1-0.3,1.8-0.8,2.7-1.4c0.8-0.6,1.5-1.2,2.2-2
			c0.6-0.8,1.1-1.6,1.4-2.4v-9c-0.9-2.2-2.2-4-4.1-5.3c-1.8-1.3-3.8-2-5.8-2c-1.5,0-2.8,0.3-4,1c-1.2,0.6-2.2,1.5-3.1,2.6
			c-0.9,1.1-1.5,2.3-2,3.7c-0.5,1.4-0.7,2.8-0.7,4.3c0,1.5,0.3,3,0.8,4.3c0.5,1.3,1.3,2.5,2.2,3.5c0.9,1,2,1.8,3.3,2.4
			C334.5,101.6,335.8,101.9,337.3,101.9z"/>
		<path class="st1" d="M397.5,109.4h-9.6V88.2c0-3-0.5-5.2-1.6-6.6c-1.1-1.4-2.5-2.1-4.4-2.1c-1,0-1.9,0.2-3,0.6
			c-1,0.4-2,0.9-2.8,1.6c-0.9,0.7-1.7,1.5-2.4,2.5c-0.7,1-1.2,2-1.6,3.2v22h-9.6V71.6h8.7v7c1.4-2.4,3.4-4.3,6-5.6
			c2.6-1.3,5.6-2,8.9-2c2.4,0,4.3,0.4,5.8,1.3c1.5,0.9,2.6,2,3.5,3.4c0.8,1.4,1.4,3,1.7,4.8c0.3,1.8,0.5,3.6,0.5,5.4V109.4z"/>
		<path class="st0" d="M458.5,58.2l-34,51.1H419l34-51.1H458.5z"/>
		<path class="st0" d="M486.9,92.2l-30.2,18v-5.4l23-14l-23-14.1v-5.3l30.2,18.1V92.2z"/>
	</g>
</g>
</svg>
